<?xml version="1.0" standalone="no"?>
<!DOCTYPE svg PUBLIC "-//W3C//DTD SVG 20010904//EN"
 "http://www.w3.org/TR/2001/REC-SVG-20010904/DTD/svg10.dtd">
<svg version="1.0" xmlns="http://www.w3.org/2000/svg"
 width="512.000000pt" height="512.000000pt" viewBox="0 0 512.000000 512.000000"
 preserveAspectRatio="xMidYMid meet">

<g transform="translate(0.000000,512.000000) scale(0.100000,-0.100000)"
fill="#000000" stroke="none">
<path d="M0 2560 l0 -2560 2560 0 2560 0 0 2560 0 2560 -2560 0 -2560 0 0
-2560z m3030 1654 c420 -54 705 -237 855 -548 73 -152 90 -239 90 -456 0 -208
-15 -287 -80 -423 -121 -255 -380 -449 -712 -531 -220 -55 -534 -69 -690 -30
l-25 7 4 -478 3 -477 27 -23 c45 -39 132 -64 301 -88 l161 -23 9 -39 c10 -45
2 -147 -15 -195 l-11 -32 -236 8 c-193 6 -783 7 -1436 0 l-110 -1 -14 72 c-13
63 -13 80 0 134 l14 63 130 18 c157 22 281 52 315 77 22 16 26 28 32 112 24
311 25 2335 0 2455 -6 33 -14 42 -52 61 -53 26 -146 47 -307 68 -64 8 -119 18
-122 21 -9 8 -7 204 1 235 l7 25 873 2 c722 1 893 -1 988 -14z"/>
<path d="M1230 4089 l0 -45 102 -12 c132 -16 263 -47 312 -75 60 -34 80 -68
88 -150 4 -40 10 -426 14 -859 7 -845 -7 -1661 -29 -1707 -33 -67 -157 -121
-337 -147 -58 -9 -116 -19 -130 -22 -26 -8 -36 -36 -26 -76 l5 -21 821 0 820
0 0 47 0 47 -42 5 c-24 3 -98 10 -164 16 -253 23 -459 83 -500 145 -17 25 -18
72 -22 600 l-5 573 114 -39 c160 -54 280 -72 479 -73 184 0 281 15 410 65 230
89 408 298 482 564 19 70 22 105 22 280 0 229 -12 292 -84 441 -125 258 -355
419 -677 474 -106 19 -160 20 -883 17 l-770 -2 0 -46z m1384 -104 c312 -55
495 -240 552 -560 19 -108 18 -331 -2 -436 -29 -155 -103 -302 -192 -380 -58
-51 -169 -104 -246 -118 -139 -25 -355 -9 -513 38 l-73 22 0 543 c0 298 3 625
7 724 l6 182 187 0 c122 0 218 -5 274 -15z"/>
<path d="M2470 3262 c0 -746 -13 -662 104 -686 160 -34 346 65 433 229 118
224 117 608 -2 820 -41 73 -131 163 -205 203 -64 36 -178 69 -267 78 l-63 7 0
-651z"/>
</g>
</svg>
